<svg xmlns="http://www.w3.org/2000/svg" width="385.651" height="549" viewBox="0 0 385.651 549"><defs><style>.a{fill:#d8deea;}</style></defs><g transform="translate(-552.001 -140)"><g transform="translate(-674.172 -37.377)"><g transform="translate(1440.012 216.149)"><path class="a" d="M1592.05,738.743a1.517,1.517,0,0,1-1.516-1.516V662.235a1.518,1.518,0,0,1,.114-.576l18.035-43.834V440.266H1592.05a1.517,1.517,0,0,1-1.516-1.516V389.38l-43.26-43.26a1.516,1.516,0,0,1-.443-1.072V300.919L1508.4,230.76a1.516,1.516,0,1,1,2.66-1.457l38.614,70.5a1.513,1.513,0,0,1,.187.729v43.888l43.26,43.261a1.517,1.517,0,0,1,.444,1.072v48.481H1610.2a1.517,1.517,0,0,1,1.516,1.516V618.125a1.5,1.5,0,0,1-.115.576l-18.034,43.834v74.691A1.516,1.516,0,0,1,1592.05,738.743Z" transform="translate(-1508.215 -228.515)"/></g><g transform="translate(1339.545 216.148)"><path class="a" d="M1395.37,738.743a1.516,1.516,0,0,1-1.516-1.516V662.535L1375.818,618.7a1.518,1.518,0,0,1-.114-.576V438.749a1.517,1.517,0,0,1,1.516-1.516h16.633V388.752a1.517,1.517,0,0,1,.444-1.072l43.26-43.261V300.531a1.52,1.52,0,0,1,.186-.729l38.614-70.5a1.516,1.516,0,0,1,2.66,1.457l-38.428,70.159v44.128a1.517,1.517,0,0,1-.444,1.072l-43.26,43.26v49.37a1.516,1.516,0,0,1-1.516,1.516h-16.633V617.825l18.035,43.834a1.505,1.505,0,0,1,.115.576v74.992A1.516,1.516,0,0,1,1395.37,738.743Z" transform="translate(-1375.704 -228.514)"/></g><g transform="translate(1440.012 177.377)"><path class="a" d="M1509.731,222.487a1.516,1.516,0,0,1-1.516-1.516V178.893a1.516,1.516,0,0,1,3.033,0v42.078A1.516,1.516,0,0,1,1509.731,222.487Z" transform="translate(-1508.215 -177.377)"/></g><g transform="translate(1401.398 286.648)"><path class="a" d="M1535.92,324.533H1458.8a1.516,1.516,0,0,1,0-3.033h77.118a1.516,1.516,0,0,1,0,3.033Z" transform="translate(-1457.285 -321.5)"/></g><g transform="translate(1401.398 332.006)"><path class="a" d="M1536.678,384.358H1458.8a1.516,1.516,0,0,1,0-3.033h77.876a1.516,1.516,0,0,1,0,3.033Z" transform="translate(-1457.285 -381.325)"/></g><g transform="translate(1357.694 374.182)"><path class="a" d="M1565.2,440.021h0l-164.038-.036a1.516,1.516,0,0,1,0-3.033h0l164.038.036a1.516,1.516,0,0,1,0,3.033Z" transform="translate(-1399.642 -436.953)"/></g><g transform="translate(1357.694 424.744)"><path class="a" d="M1565.955,506.674h-164.8a1.516,1.516,0,0,1,0-3.033h164.8a1.516,1.516,0,0,1,0,3.033Z" transform="translate(-1399.642 -503.641)"/></g><g transform="translate(1339.886 604.242)"><path class="a" d="M1577.713,743.423H1377.67a1.516,1.516,0,0,1,0-3.033h200.043a1.516,1.516,0,0,1,0,3.033Z" transform="translate(-1376.154 -740.39)"/></g><g transform="translate(1357.207 647.858)"><path class="a" d="M1400.516,801.013a1.516,1.516,0,0,1,0-3.033l165.123-.063h0a1.516,1.516,0,0,1,0,3.033l-165.124.063Z" transform="translate(-1399 -797.917)"/></g><g transform="translate(1403.313 671.48)"><path class="a" d="M1461.327,883.97a1.516,1.516,0,0,1-1.516-1.516V830.589a1.516,1.516,0,0,1,3.033,0v51.864A1.516,1.516,0,0,1,1461.327,883.97Z" transform="translate(-1459.811 -829.073)"/></g><g transform="translate(1440.012 671.48)"><path class="a" d="M1509.731,883.97a1.516,1.516,0,0,1-1.516-1.516V830.589a1.516,1.516,0,0,1,3.033,0v51.864A1.516,1.516,0,0,1,1509.731,883.97Z" transform="translate(-1508.215 -829.073)"/></g><g transform="translate(1476.712 671.48)"><path class="a" d="M1558.137,883.97a1.516,1.516,0,0,1-1.516-1.516V830.589a1.516,1.516,0,0,1,3.033,0v51.864A1.516,1.516,0,0,1,1558.137,883.97Z" transform="translate(-1556.621 -829.073)"/></g><g transform="translate(1383.103 456.763)"><path class="a" d="M1491.5,662.56a58.344,58.344,0,1,1,58.345-58.344A58.41,58.41,0,0,1,1491.5,662.56Zm0-113.655a55.311,55.311,0,1,0,55.312,55.311A55.374,55.374,0,0,0,1491.5,548.9Z" transform="translate(-1433.155 -545.872)"/></g><g transform="translate(1439.082 497.939)"><path class="a" d="M1508.506,648.3h-.049a1.516,1.516,0,0,1-1.467-1.564l.848-26.181a1.523,1.523,0,0,1,.452-1.033l19.215-18.911a1.516,1.516,0,1,1,2.128,2.162l-18.783,18.485-.828,25.575A1.516,1.516,0,0,1,1508.506,648.3Z" transform="translate(-1506.989 -600.181)"/></g><g transform="translate(1498.612 228.67)"><path class="a" d="M1678.633,300.926h-32.578a1.516,1.516,0,0,1,0-3.033h32.578a17.052,17.052,0,1,0-9.273-31.366,1.506,1.506,0,0,1-.914.243l-.466-.028a1.514,1.514,0,0,1-1.341-1.01,26.468,26.468,0,0,0-49.83-.266,1.515,1.515,0,0,1-1.989.889l-.582-.233a1.561,1.561,0,0,1-.189-.091A17.059,17.059,0,0,0,1588.674,283a1.517,1.517,0,0,1-3.009.38,20.093,20.093,0,0,1,28.911-20.5,29.5,29.5,0,0,1,54.358.376,20.086,20.086,0,1,1,9.7,37.677Z" transform="translate(-1585.506 -245.03)"/></g><g transform="translate(1226.173 301.108)"><path class="a" d="M1349.251,387.051H1336.6a1.517,1.517,0,0,1-1.513-1.611c.026-.454.508-11.308-10.542-17.95-11.091-6.667-24.168.846-24.3.923a1.518,1.518,0,0,1-2.253-1c-.206-.97-5.423-23.811-36.187-23.811-12.772,0-22.128,6.579-27.806,19.554a63.308,63.308,0,0,0-4.8,20.068,1.516,1.516,0,0,1-3.03-.124,65.2,65.2,0,0,1,5.017-21.082c6.113-14.032,16.7-21.449,30.618-21.449,27.98,0,36.547,18.336,38.6,24.344,4.209-2,15.443-6.19,25.7-.027a23.851,23.851,0,0,1,11.988,19.128h11.154a1.516,1.516,0,0,1,0,3.033Z" transform="translate(-1226.173 -340.572)"/></g></g></g></svg>