<svg xmlns="http://www.w3.org/2000/svg" xmlns:xlink="http://www.w3.org/1999/xlink" width="108" height="100" viewBox="0 0 108 100"><defs><style>.a{fill:#e48b35;}.b{fill:#fff;}.c{filter:url(#a);}</style><filter id="a" x="0" y="0" width="108" height="100" filterUnits="userSpaceOnUse"><feOffset dy="4" input="SourceAlpha"/><feGaussianBlur stdDeviation="6" result="b"/><feFlood flood-opacity="0.259"/><feComposite operator="in" in2="b"/><feComposite in="SourceGraphic"/></filter></defs><g transform="translate(-1193 -689)"><g class="c" transform="matrix(1, 0, 0, 1, 1193, 689)"><path class="a" d="M-865.632,0a5.549,5.549,0,0,1,4.8,2.768L-845.5,29.2a5.577,5.577,0,0,1,0,5.6l-15.335,26.435a5.549,5.549,0,0,1-4.8,2.768h-30.227a5.549,5.549,0,0,1-4.8-2.768L-915.993,34.8a5.577,5.577,0,0,1,0-5.6l15.335-26.435A5.549,5.549,0,0,1-895.859,0Z" transform="translate(934.75 14)"/></g><path class="b" d="M-20688.336-358.181c-.014,0,1.711-4.012,2.939-6.862l-7.178-12.384a3.127,3.127,0,0,1,0-3.147l8.621-14.868a3.123,3.123,0,0,1,2.705-1.558h17a3.112,3.112,0,0,1,2.7,1.558l8.625,14.868a3.127,3.127,0,0,1,0,3.147l-8.625,14.874a3.118,3.118,0,0,1-2.7,1.553h-15.766c-3.5,1.189-8.295,2.82-8.32,2.82Z" transform="translate(21919.75 1114)"/></g></svg>