<svg xmlns="http://www.w3.org/2000/svg" width="24" height="23.011" viewBox="0 0 24 23.011"><defs><style>.a{fill:#e48b35;}</style></defs><g transform="translate(-512.482 -31.346)"><path class="a" d="M524.482,41.8a5.229,5.229,0,1,1,5.23-5.229A5.234,5.234,0,0,1,524.482,41.8Zm0-8.458a3.229,3.229,0,1,0,3.23,3.229A3.232,3.232,0,0,0,524.482,33.346Z"/><path class="a" d="M535.482,54.357a1,1,0,0,1-1-1c0-4.136-4.486-7.5-10-7.5s-10,3.364-10,7.5a1,1,0,0,1-2,0c0-5.239,5.383-9.5,12-9.5s12,4.261,12,9.5A1,1,0,0,1,535.482,54.357Z"/></g></svg>